<svg xmlns="http://www.w3.org/2000/svg" id="Layer_1" x="0" y="0" version="1.1" viewBox="0 0 303 303" xml:space="preserve">
  <path fill="#158aff" d="M118 210.5H75V55.3h71.2c23.1 0 42.2 17.3 44.5 40.2l.3 3.5-3.6-.3c-1.4-.1-2.8-.2-4.2-.2H118v112zm-37-6h31V92.6h72.2c-3.5-18.1-19.2-31.3-38-31.3H81v143.2z"/>
  <path fill="#fd7da1" d="M183.3 247.8H112v-43.3h34.2c21.3 0 38.7-17.4 38.7-38.7 0-12-5.4-23.2-14.9-30.5l-3.1-2.4 3.1-2.4c9.5-7.4 14.9-18.5 14.9-30.5 0-1.3-.1-2.6-.2-3.9l-.3-3.6 3.6.3c22.8 2.4 40 21.5 40 44.4 0 12.7-5.2 24.5-14.5 32.9 9.2 8.5 14.5 20.3 14.5 33 0 24.6-20.1 44.7-44.7 44.7zm-65.3-6h65.3c21.3 0 38.7-17.4 38.7-38.7 0-12-5.5-23.2-15-30.6l-3-2.4 3-2.4c9.5-7.4 14.9-18.5 14.9-30.5 0-18.6-13.1-34.4-31.1-37.9v.7c0 12.7-5.2 24.5-14.4 32.9 9.2 8.4 14.4 20.2 14.4 32.9 0 24.6-20.1 44.7-44.7 44.7H118v31.3z"/>
  <path fill="#06376c" d="M146.3 210.4H112V92.5h71.4c1.5 0 3.1 0 4.8.2l2.4.3.2 2.4c.1 1.4.2 2.9.2 4.4 0 12.7-5.2 24.5-14.4 32.9 9.2 8.4 14.4 20.2 14.4 32.9 0 24.7-20.1 44.8-44.7 44.8zm-28.3-6h28.3c21.3 0 38.7-17.4 38.7-38.7 0-12-5.4-23.2-14.9-30.5l-3.1-2.4 3.1-2.4c9.5-7.4 14.9-18.5 14.9-30.5v-1.4h-67v105.9z"/>
  <path fill="#d0d3d8" d="M104 259.7h-4v-4h2v2h2zM102 249.5h-2v-6.3h2v6.3zm0-12.5h-2v-6.3h2v6.3zM102 224.4h-2v-2h-2v-2h4zM91.8 222.4h-6.2v-2h6.2v2zm-12.4 0h-6.2v-2h6.2v2zM67 222.4h-4v-4h2v2h2zM65 212.5h-2v-5.9h2v5.9zm0-11.8h-2v-5.9h2v5.9zm0-11.8h-2V183h2v5.9zm0-11.8h-2v-5.9h2v5.9zm0-11.8h-2v-5.9h2v5.9zm0-11.8h-2v-5.9h2v5.9zm0-11.8h-2v-5.9h2v5.9zm0-11.8h-2V124h2v5.9zm0-11.8h-2v-5.9h2v5.9zm0-11.8h-2v-5.9h2v5.9zm0-11.8h-2v-5.9h2v5.9zm0-11.9h-2v-5.9h2v5.9zm0-11.8h-2v-5.9h2v5.9zM65 59h-2v-5.9h2V59zM65 47.3h-2v-4h4v2h-2zM195.6 76.1c-.8-1.7-1.8-3.4-2.8-5.1l1.7-1.1c1 1.7 2 3.5 2.9 5.3l-1.8.9zm-6.1-9.8c-1.2-1.5-2.5-3-3.8-4.4l1.4-1.4c1.4 1.4 2.7 3 3.9 4.5l-1.5 1.3zm-8.1-8.4c-1.5-1.2-3-2.4-4.6-3.5l1.1-1.7c1.7 1.1 3.3 2.3 4.8 3.6l-1.3 1.6zm-9.6-6.4c-1.7-.9-3.5-1.7-5.3-2.4l.7-1.9c1.9.7 3.7 1.6 5.5 2.5l-.9 1.8zM161 47.3c-1.9-.5-3.8-.9-5.7-1.2l.3-2c2 .3 3.9.8 5.9 1.3l-.5 1.9zm-11.4-1.9c-1.1-.1-2.2-.1-3.3-.1h-2.6v-2h2.6c1.1 0 2.3 0 3.4.1l-.1 2zm-11.8-.1h-5.9v-2h5.9v2zm-11.8 0h-5.9v-2h5.9v2zm-11.8 0h-5.9v-2h5.9v2zm-11.8 0h-5.9v-2h5.9v2zm-11.8 0h-5.9v-2h5.9v2zm-11.8 0h-5.9v-2h5.9v2zM202.1 85.8c-.9-.3-1.8-.6-2.8-.9l-.5-.2-.2-.5c-.3-1-.6-2-.9-2.9l1.9-.6c.3.8.5 1.6.8 2.4.8.2 1.5.5 2.3.7l-.6 2zM233.8 163l-1.8-1c.9-1.7 1.7-3.5 2.4-5.3l1.9.7c-.7 1.9-1.6 3.8-2.5 5.6zm4.3-11.2l-1.9-.5c.5-1.8.9-3.7 1.2-5.7l2 .3c-.4 2-.8 4-1.3 5.9zm1.8-11.8l-2-.1c0-.9.1-1.8.1-2.7 0-1 0-2.1-.1-3.1l2-.1c.1 1.1.1 2.2.1 3.2 0 .9 0 1.8-.1 2.8zm-2.6-11.7c-.3-1.9-.7-3.8-1.2-5.6l1.9-.5c.5 1.9 1 3.9 1.3 5.9l-2 .2zm-3.1-11.1c-.7-1.8-1.5-3.6-2.4-5.3l1.8-.9c.9 1.8 1.8 3.6 2.5 5.5l-1.9.7zm-5.3-10.2c-1.1-1.6-2.2-3.2-3.4-4.6l1.5-1.3c1.3 1.5 2.5 3.2 3.6 4.8l-1.7 1.1zm-7.3-8.9c-1.4-1.3-2.8-2.6-4.3-3.8l1.2-1.6c1.6 1.2 3.1 2.6 4.5 4l-1.4 1.4zm-9.1-7.2c-1.6-1-3.3-2-5-2.8l.9-1.8c1.8.9 3.5 1.9 5.2 2.9l-1.1 1.7zM229.1 173.2c-.5-.8-1.1-1.6-1.6-2.4l-.5-.6.5-.6c.7-.9 1.3-1.8 1.7-2.4l1.7 1.1c-.3.5-.8 1.2-1.3 2 .5.6.9 1.3 1.3 2l-1.8.9zM183.3 259.7h-.9v-2h.9c1.7 0 3.4-.1 5.1-.2l.2 2c-1.8.1-3.6.2-5.3.2zm-6.9 0h-6v-2h6v2zm-12 0h-6v-2h6v2zm-12.1 0h-6v-2h6v2zm-12.1 0h-6v-2h6v2zm-12 0h-6v-2h6v2zm-12.1 0h-6v-2h6v2zm78.5-1.1l-.4-2c1.9-.4 3.9-.9 5.7-1.5l.6 1.9c-1.9.6-3.9 1.2-5.9 1.6zm11.7-3.8l-.8-1.8c1.8-.8 3.6-1.7 5.3-2.7l1 1.7c-1.8 1.1-3.7 2-5.5 2.8zm10.5-6.1l-1.2-1.6c1.6-1.2 3.1-2.4 4.6-3.8l1.4 1.5c-1.5 1.4-3.1 2.7-4.8 3.9zm9.1-8.3l-1.5-1.3c1.3-1.5 2.5-3 3.7-4.6l1.6 1.2c-1.2 1.6-2.5 3.2-3.8 4.7zm7-10l-1.8-1c1-1.7 1.8-3.5 2.6-5.3l1.8.8c-.7 1.9-1.6 3.7-2.6 5.5zm4.8-11.3l-1.9-.6c.6-1.9 1-3.8 1.4-5.8l2 .4-1.5 6zm2.2-12l-2-.1c.1-1.3.1-2.6.1-3.9v-2l2-.1v2.1c0 1.2 0 2.6-.1 4zm-2.5-12c-.3-1.9-.7-3.9-1.2-5.8l1.9-.5c.5 2 .9 4 1.2 6l-1.9.3zm-2.9-11.4c-.7-1.8-1.5-3.7-2.4-5.4l1.8-.9c.9 1.8 1.8 3.7 2.5 5.6l-1.9.7z" class="st3"/>
</svg>
